<?xml version="1.0" encoding="utf-8"?>
<!-- Generator: Adobe Illustrator 16.0.0, SVG Export Plug-In . SVG Version: 6.00 Build 0)  -->
<!DOCTYPE svg PUBLIC "-//W3C//DTD SVG 1.1//EN" "http://www.w3.org/Graphics/SVG/1.1/DTD/svg11.dtd">
<svg version="1.1" id="Layer_1" xmlns="http://www.w3.org/2000/svg" xmlns:xlink="http://www.w3.org/1999/xlink" x="0px" y="0px"
	 width="180px" height="72.2px" viewBox="0 0 180 72.2" enable-background="new 0 0 180 72.2" xml:space="preserve">
<g display="none">
	<rect y="36.125" display="inline" fill="#FFFFFF" width="36" height="36"/>
	<rect x="36" y="36.125" display="inline" fill="#FFFFFF" width="36" height="36"/>
	<rect x="72" y="36.125" display="inline" fill="#FFFFFF" width="36" height="36"/>
	<rect x="108" y="36.125" display="inline" fill="#FFFFFF" width="36" height="36"/>
	<rect x="144" y="36.125" display="inline" fill="#FFFFFF" width="36" height="36"/>
</g>
<g display="none">
	<rect display="inline" width="36" height="36"/>
	<rect x="36" display="inline" width="36" height="36"/>
	<rect x="72" display="inline" width="36" height="36"/>
	<rect x="108" display="inline" width="36" height="36"/>
	<rect x="144" display="inline" width="36" height="36"/>
</g>
<path fill="#676767" d="M23.066,8.05h-2.604c-2.958,0-4.852,1.894-4.852,4.97v2.249h-2.604c-0.237,0-0.355,0.237-0.355,0.354v3.314
	c0,0.235,0.236,0.355,0.355,0.355h2.604v8.401c0,0.236,0.236,0.355,0.354,0.355h3.433c0.236,0,0.354-0.236,0.354-0.355v-8.401h3.078
	c0.236,0,0.355-0.237,0.355-0.355v-3.314c0-0.118,0-0.236-0.119-0.236c-0.119-0.118-0.236-0.118-0.236-0.118h-3.078v-1.894
	c0-0.947,0.237-1.42,1.421-1.42h1.774c0.237,0,0.355-0.237,0.355-0.355V8.405C23.422,8.169,23.303,8.05,23.066,8.05"/>
<path fill="#676767" d="M134.118,13.581h-5.061v-1.294h5.061V13.581z M125.763,18.639c0.355,0.469,0.474,1.058,0.474,1.764
	c0,0.705-0.235,1.411-0.59,2c-0.233,0.353-0.471,0.705-0.823,0.942c-0.354,0.352-0.822,0.468-1.41,0.587
	c-0.59,0.118-1.178,0.118-1.767,0.118H116V11.815h6c1.528,0,2.588,0.471,3.176,1.295c0.354,0.47,0.587,1.176,0.587,1.882
	c0,0.706-0.233,1.412-0.587,1.882c-0.234,0.235-0.588,0.471-0.94,0.707C124.94,17.815,125.412,18.169,125.763,18.639
	 M118.822,16.756h2.59c0.588,0,0.939-0.118,1.294-0.353c0.352-0.235,0.47-0.588,0.47-1.059c0-0.588-0.235-0.941-0.706-1.176
	c-0.352-0.118-0.823-0.235-1.412-0.235h-2.353v2.823H118.822z M123.528,20.287c0-0.589-0.233-1.059-0.822-1.295
	c-0.354-0.117-0.706-0.235-1.294-0.235h-2.707v3.294h2.59c0.587,0,0.939-0.118,1.293-0.236
	C123.295,21.581,123.528,21.108,123.528,20.287 M135.882,18.287C136,18.639,136,19.228,136,20.05h-6.472
	c0,0.941,0.354,1.529,0.94,1.882c0.354,0.236,0.825,0.354,1.293,0.354c0.59,0,0.943-0.118,1.295-0.354
	c0.237-0.118,0.355-0.353,0.472-0.588h2.354c-0.119,0.588-0.354,1.059-0.823,1.647c-0.823,0.822-1.883,1.294-3.296,1.294
	c-1.175,0-2.233-0.354-3.175-1.059c-0.941-0.706-1.412-1.883-1.412-3.531c0-1.527,0.354-2.704,1.177-3.527
	c0.823-0.824,1.884-1.295,3.177-1.295c0.823,0,1.528,0.118,2.117,0.471c0.589,0.236,1.177,0.706,1.529,1.294
	C135.528,16.992,135.763,17.581,135.882,18.287 M133.528,18.521c0-0.588-0.233-1.059-0.589-1.412
	c-0.353-0.353-0.821-0.47-1.411-0.47c-0.588,0-1.06,0.118-1.41,0.47c-0.355,0.353-0.59,0.823-0.59,1.412H133.528z"/>
<path fill="#676767" d="M100,20.267v7.412h-4.234v-6.941c0-1.764-0.588-2.94-2.117-2.94c-1.178,0-1.885,0.823-2.235,1.529
	c-0.235,0.353-0.235,0.823-0.235,1.177v7.176h-4.234V14.739h4.234v1.882c0.588-0.823,1.528-2.118,3.884-2.118
	C97.883,14.503,100,16.385,100,20.267 M82.471,8.62C81.06,8.62,80,9.561,80,10.856c0,1.294,0.94,2.235,2.354,2.235
	c1.527,0,2.47-0.941,2.47-2.235C84.823,9.561,83.882,8.62,82.471,8.62 M80.235,27.679h4.233V14.738h-4.233V27.679z"/>
<path fill="#676767" d="M46.588,8.15h14.823C62.823,8.15,64,9.209,64,10.738v14.824c0,1.529-1.177,2.588-2.588,2.588H46.588
	c-1.411,0-2.588-1.059-2.588-2.588V10.738C44,9.209,45.177,8.15,46.588,8.15 M58.588,10.385c-0.471,0-0.941,0.353-0.941,0.941v2.117
	c0,0.471,0.353,0.941,0.941,0.941h2.235c0.471,0,0.941-0.353,0.941-0.941v-2.117c0-0.471-0.353-0.941-0.941-0.941H58.588z
	 M61.765,16.62H60c0.118,0.589,0.235,1.177,0.235,1.765c0,3.294-2.824,6-6.235,6s-6.235-2.706-6.235-6
	c0-0.588,0.118-1.176,0.235-1.765h-1.882v8.47c0,0.472,0.353,0.824,0.823,0.824h13.882c0.471,0,0.824-0.353,0.824-0.824v-8.47
	H61.765z M54,14.268c-2.235,0-4,1.764-4,3.882c0,2.117,1.765,3.883,4,3.883s4-1.766,4-3.883C58,16.032,56.235,14.268,54,14.268"/>
<path fill="#010101" d="M23.066,44.1h-2.604c-2.958,0-4.852,1.896-4.852,4.971v2.249h-2.604c-0.237,0-0.355,0.236-0.355,0.354v3.314
	c0,0.234,0.236,0.354,0.355,0.354h2.604v8.402c0,0.234,0.236,0.354,0.354,0.354h3.433c0.236,0,0.354-0.235,0.354-0.354v-8.402h3.078
	c0.236,0,0.355-0.236,0.355-0.354v-3.314c0-0.118,0-0.236-0.119-0.236c-0.119-0.117-0.236-0.117-0.236-0.117h-3.078v-1.895
	c0-0.947,0.237-1.42,1.421-1.42h1.774c0.237,0,0.355-0.237,0.355-0.354v-3.195C23.422,44.219,23.303,44.1,23.066,44.1"/>
<path fill="#010101" d="M134.118,49.631h-5.061v-1.294h5.061V49.631z M125.763,54.688c0.355,0.472,0.474,1.06,0.474,1.767
	c0,0.705-0.235,1.41-0.59,2c-0.233,0.351-0.471,0.705-0.823,0.939c-0.354,0.354-0.822,0.47-1.41,0.587
	c-0.59,0.118-1.178,0.118-1.767,0.118H116V47.865h6c1.528,0,2.588,0.472,3.176,1.296c0.354,0.47,0.587,1.176,0.587,1.882
	s-0.233,1.412-0.587,1.882c-0.234,0.235-0.588,0.47-0.94,0.707C124.94,53.865,125.412,54.219,125.763,54.688 M118.822,52.806h2.59
	c0.588,0,0.939-0.118,1.294-0.352c0.352-0.236,0.47-0.589,0.47-1.061c0-0.588-0.235-0.939-0.706-1.176
	c-0.352-0.118-0.823-0.235-1.412-0.235h-2.353v2.823H118.822z M123.528,56.337c0-0.589-0.233-1.061-0.822-1.295
	c-0.354-0.117-0.706-0.236-1.294-0.236h-2.707V58.1h2.59c0.587,0,0.939-0.118,1.293-0.234
	C123.295,57.631,123.528,57.16,123.528,56.337 M135.882,54.337C136,54.688,136,55.276,136,56.1h-6.472
	c0,0.942,0.354,1.53,0.94,1.882c0.354,0.236,0.825,0.355,1.293,0.355c0.59,0,0.943-0.119,1.295-0.355
	c0.237-0.116,0.355-0.352,0.472-0.588h2.354c-0.119,0.588-0.354,1.062-0.823,1.648c-0.823,0.821-1.883,1.294-3.296,1.294
	c-1.175,0-2.233-0.355-3.175-1.061c-0.941-0.706-1.412-1.883-1.412-3.528c0-1.529,0.354-2.705,1.177-3.529s1.884-1.294,3.177-1.294
	c0.823,0,1.528,0.118,2.117,0.47c0.589,0.237,1.177,0.706,1.529,1.294C135.528,53.043,135.763,53.631,135.882,54.337
	 M133.528,54.571c0-0.589-0.233-1.06-0.589-1.411c-0.353-0.354-0.821-0.472-1.411-0.472c-0.588,0-1.06,0.118-1.41,0.472
	c-0.355,0.352-0.59,0.821-0.59,1.411H133.528z"/>
<path fill="#010101" d="M100,56.317v7.412h-4.234v-6.941c0-1.764-0.588-2.939-2.117-2.939c-1.178,0-1.885,0.822-2.235,1.528
	c-0.235,0.354-0.235,0.823-0.235,1.177v7.177h-4.234V50.789h4.234v1.882c0.588-0.822,1.528-2.118,3.884-2.118
	C97.883,50.553,100,52.436,100,56.317 M82.471,44.67C81.06,44.67,80,45.611,80,46.906c0,1.294,0.94,2.235,2.354,2.235
	c1.527,0,2.47-0.941,2.47-2.235C84.823,45.611,83.882,44.67,82.471,44.67 M80.235,63.729h4.233v-12.94h-4.233V63.729z"/>
<path fill="#010101" d="M46.588,44.201h14.823c1.412,0,2.589,1.058,2.589,2.588v14.822c0,1.529-1.177,2.59-2.588,2.59H46.588
	c-1.411,0-2.588-1.061-2.588-2.59V46.789C44,45.259,45.177,44.201,46.588,44.201 M58.588,46.435c-0.471,0-0.941,0.354-0.941,0.942
	v2.117c0,0.47,0.353,0.939,0.941,0.939h2.235c0.471,0,0.941-0.352,0.941-0.939v-2.117c0-0.471-0.353-0.942-0.941-0.942H58.588z
	 M61.765,52.671H60c0.118,0.588,0.235,1.176,0.235,1.764c0,3.294-2.824,6-6.235,6s-6.235-2.706-6.235-6
	c0-0.588,0.118-1.176,0.235-1.764h-1.882v8.469c0,0.472,0.353,0.824,0.823,0.824h13.882c0.471,0,0.824-0.354,0.824-0.824v-8.469
	H61.765z M54,50.317c-2.235,0-4,1.766-4,3.884c0,2.115,1.765,3.882,4,3.882s4-1.767,4-3.882C58,52.083,56.235,50.317,54,50.317"/>
<path fill-rule="evenodd" clip-rule="evenodd" d="M172,50.141c0-1.651-1.338-2.99-2.988-2.99h-14.022
	c-1.65,0-2.989,1.339-2.989,2.99v8.019c0,1.651,1.339,2.99,2.989,2.99h14.022c1.65,0,2.988-1.339,2.988-2.99V50.141z M160,57.533
	v-7.53l5.712,3.764L160,57.533z"/>
<path fill-rule="evenodd" clip-rule="evenodd" fill="#676767" d="M172,14.041c0-1.651-1.338-2.99-2.988-2.99h-14.022
	c-1.65,0-2.989,1.339-2.989,2.99v8.019c0,1.651,1.339,2.99,2.989,2.99h14.022c1.65,0,2.988-1.339,2.988-2.99V14.041z M160,21.434
	v-7.532l5.712,3.765L160,21.434z"/>
</svg>
