<?xml version="1.0" encoding="utf-8"?>
<!-- Generator: Adobe Illustrator 16.0.0, SVG Export Plug-In . SVG Version: 6.00 Build 0)  -->
<!DOCTYPE svg PUBLIC "-//W3C//DTD SVG 1.1//EN" "http://www.w3.org/Graphics/SVG/1.1/DTD/svg11.dtd">
<svg version="1.1" id="Layer_1" xmlns="http://www.w3.org/2000/svg" xmlns:xlink="http://www.w3.org/1999/xlink" x="0px" y="0px"
	 width="180px" height="72.2px" viewBox="0 0 180 72.2" enable-background="new 0 0 180 72.2" xml:space="preserve">
<g display="none">
	<rect y="36.125" display="inline" fill="#FFFFFF" width="36" height="36"/>
	<rect x="36" y="36.125" display="inline" fill="#FFFFFF" width="36" height="36"/>
	<rect x="72" y="36.125" display="inline" fill="#FFFFFF" width="36" height="36"/>
	<rect x="108" y="36.125" display="inline" fill="#FFFFFF" width="36" height="36"/>
	<rect x="144" y="36.125" display="inline" fill="#FFFFFF" width="36" height="36"/>
</g>
<g display="none">
	<rect display="inline" width="36" height="36"/>
	<rect x="36" display="inline" width="36" height="36"/>
	<rect x="72" display="inline" width="36" height="36"/>
	<rect x="108" display="inline" width="36" height="36"/>
	<rect x="144" display="inline" width="36" height="36"/>
</g>
<path fill="#676767" d="M23.066,8.05h-2.604c-2.958,0-4.852,1.894-4.852,4.97v2.249h-2.604c-0.237,0-0.355,0.237-0.355,0.354v3.314
	c0,0.235,0.236,0.355,0.355,0.355h2.604v8.401c0,0.236,0.236,0.355,0.354,0.355h3.433c0.236,0,0.354-0.236,0.354-0.355v-8.401h3.078
	c0.236,0,0.355-0.237,0.355-0.355v-3.314c0-0.118,0-0.236-0.119-0.236c-0.119-0.118-0.236-0.118-0.236-0.118h-3.078v-1.894
	c0-0.947,0.237-1.42,1.421-1.42h1.774c0.237,0,0.355-0.237,0.355-0.355V8.405C23.422,8.169,23.303,8.05,23.066,8.05"/>
<path fill="#676767" d="M46.588,8.15h14.823C62.823,8.15,64,9.209,64,10.738v14.824c0,1.529-1.177,2.588-2.588,2.588H46.588
	c-1.411,0-2.588-1.059-2.588-2.588V10.738C44,9.209,45.177,8.15,46.588,8.15 M58.588,10.385c-0.471,0-0.941,0.353-0.941,0.941v2.117
	c0,0.471,0.353,0.941,0.941,0.941h2.235c0.471,0,0.941-0.353,0.941-0.941v-2.117c0-0.471-0.353-0.941-0.941-0.941H58.588z
	 M61.765,16.62H60c0.118,0.589,0.235,1.177,0.235,1.765c0,3.294-2.824,6-6.235,6s-6.235-2.706-6.235-6
	c0-0.588,0.118-1.176,0.235-1.765h-1.882v8.47c0,0.472,0.353,0.824,0.823,0.824h13.882c0.471,0,0.824-0.353,0.824-0.824v-8.47
	H61.765z M54,14.268c-2.235,0-4,1.764-4,3.882c0,2.117,1.765,3.883,4,3.883s4-1.766,4-3.883C58,16.032,56.235,14.268,54,14.268"/>
<path fill="#010101" d="M23.066,44.1h-2.604c-2.958,0-4.852,1.896-4.852,4.971v2.249h-2.604c-0.237,0-0.355,0.236-0.355,0.354v3.313
	c0,0.234,0.236,0.354,0.355,0.354h2.604v8.402c0,0.233,0.236,0.354,0.354,0.354h3.433c0.236,0,0.354-0.235,0.354-0.354v-8.402h3.078
	c0.236,0,0.355-0.236,0.355-0.354v-3.313c0-0.118,0-0.236-0.119-0.236c-0.119-0.117-0.236-0.117-0.236-0.117h-3.078v-1.895
	c0-0.947,0.237-1.42,1.421-1.42h1.774c0.237,0,0.355-0.237,0.355-0.354v-3.194C23.422,44.219,23.303,44.1,23.066,44.1"/>
<path fill="#010101" d="M46.588,44.202h14.823c1.412,0,2.589,1.057,2.589,2.588v14.821c0,1.529-1.177,2.591-2.588,2.591H46.588
	c-1.411,0-2.588-1.062-2.588-2.591V46.79C44,45.258,45.177,44.202,46.588,44.202 M58.588,46.435c-0.471,0-0.941,0.354-0.941,0.942
	v2.117c0,0.469,0.353,0.938,0.941,0.938h2.235c0.471,0,0.941-0.353,0.941-0.938v-2.117c0-0.472-0.353-0.942-0.941-0.942H58.588z
	 M61.765,52.67H60c0.118,0.588,0.235,1.177,0.235,1.765c0,3.294-2.824,6-6.235,6s-6.235-2.706-6.235-6
	c0-0.588,0.118-1.177,0.235-1.765h-1.882v8.47c0,0.472,0.353,0.823,0.823,0.823h13.882c0.471,0,0.824-0.354,0.824-0.823v-8.47
	H61.765z M54,50.317c-2.235,0-4,1.766-4,3.885c0,2.114,1.765,3.881,4,3.881s4-1.767,4-3.881C58,52.083,56.235,50.317,54,50.317"/>
<path d="M172,50.141c0-1.651-1.338-2.99-2.988-2.99H154.99c-1.65,0-2.989,1.339-2.989,2.99v8.02c0,1.65,1.339,2.989,2.989,2.989
	h14.021c1.65,0,2.988-1.339,2.988-2.989V50.141z M160,57.534v-7.531l5.712,3.765L160,57.534z"/>
<path fill="#676767" d="M172,14.041c0-1.651-1.338-2.99-2.988-2.99H154.99c-1.65,0-2.989,1.339-2.989,2.99v8.019
	c0,1.651,1.339,2.99,2.989,2.99h14.021c1.65,0,2.988-1.339,2.988-2.99V14.041z M160,21.434v-7.532l5.712,3.765L160,21.434z"/>
<path fill="#676767" d="M90,8c-5.523,0-10,4.478-10,10c0,5.523,4.477,10,10,10c5.522,0,10-4.477,10-10C100,12.478,95.522,8,90,8z
	 M94.932,16.424c0.005,0.103,0.008,0.206,0.008,0.31c0,3.158-2.405,6.801-6.802,6.801c-1.351,0-2.606-0.396-3.663-1.074
	c0.186,0.023,0.377,0.033,0.57,0.033c1.119,0,2.15-0.381,2.969-1.022c-1.047-0.02-1.93-0.71-2.234-1.66
	c0.146,0.028,0.297,0.043,0.451,0.043c0.217,0,0.429-0.029,0.629-0.085c-1.094-0.219-1.918-1.185-1.918-2.343c0-0.011,0-0.02,0-0.03
	c0.323,0.18,0.691,0.287,1.083,0.3c-0.641-0.429-1.062-1.161-1.062-1.99c0-0.438,0.117-0.849,0.323-1.202
	c1.179,1.447,2.94,2.398,4.927,2.498c-0.041-0.175-0.062-0.357-0.062-0.545c0-1.319,1.069-2.39,2.39-2.39
	c0.688,0,1.31,0.29,1.745,0.755c0.545-0.107,1.057-0.307,1.518-0.58c-0.179,0.558-0.557,1.026-1.051,1.322
	c0.482-0.058,0.944-0.187,1.373-0.376C95.805,15.666,95.399,16.087,94.932,16.424z"/>
<path fill="#010101" d="M90,44.125c-5.523,0-10,4.478-10,10c0,5.523,4.477,10,10,10c5.522,0,10-4.477,10-10
	C100,48.603,95.522,44.125,90,44.125z M94.932,52.549c0.005,0.103,0.008,0.206,0.008,0.31c0,3.158-2.405,6.801-6.802,6.801
	c-1.351,0-2.606-0.396-3.663-1.074c0.186,0.023,0.377,0.033,0.57,0.033c1.119,0,2.15-0.381,2.969-1.022
	c-1.047-0.02-1.93-0.71-2.234-1.66c0.146,0.028,0.297,0.043,0.451,0.043c0.217,0,0.429-0.029,0.629-0.085
	c-1.094-0.219-1.918-1.185-1.918-2.343c0-0.011,0-0.02,0-0.03c0.323,0.18,0.691,0.287,1.083,0.3
	c-0.641-0.429-1.062-1.161-1.062-1.99c0-0.438,0.117-0.849,0.323-1.202c1.179,1.447,2.94,2.398,4.927,2.498
	c-0.041-0.175-0.062-0.357-0.062-0.545c0-1.319,1.069-2.39,2.39-2.39c0.688,0,1.31,0.29,1.745,0.755
	c0.545-0.107,1.057-0.307,1.518-0.58c-0.179,0.558-0.557,1.026-1.051,1.322c0.482-0.058,0.944-0.187,1.373-0.376
	C95.805,51.792,95.399,52.212,94.932,52.549z"/>
<g>
	<path fill="#010101" d="M126,44.125c-5.523,0-10,4.477-10,10c0,5.522,4.477,9.999,10,9.999c5.522,0,10-4.477,10-9.999
		C136,48.602,131.522,44.125,126,44.125L126,44.125z M130.353,58.637c-0.128,0.218-0.356,0.34-0.592,0.34
		c-0.117,0-0.235-0.03-0.344-0.094c-1.797-1.051-3.873-1.22-5.299-1.176c-1.579,0.048-2.737,0.359-2.749,0.362
		c-0.363,0.101-0.739-0.114-0.84-0.478c-0.1-0.364,0.114-0.74,0.478-0.841c0.053-0.015,1.299-0.353,3.031-0.41
		c1.021-0.033,2.003,0.038,2.92,0.212c1.161,0.22,2.221,0.606,3.148,1.149C130.433,57.893,130.543,58.311,130.353,58.637
		L130.353,58.637z M131.624,55.998c-0.151,0.257-0.422,0.401-0.7,0.401c-0.14,0-0.28-0.036-0.408-0.111
		c-2.129-1.243-4.588-1.443-6.276-1.393c-1.87,0.058-3.242,0.427-3.256,0.431c-0.431,0.117-0.877-0.137-0.994-0.567
		c-0.119-0.432,0.135-0.876,0.565-0.995c0.062-0.017,1.537-0.418,3.59-0.485c1.209-0.04,2.373,0.044,3.459,0.25
		c1.376,0.261,2.63,0.719,3.729,1.361C131.719,55.115,131.85,55.611,131.624,55.998L131.624,55.998z M132.405,53.596
		c-0.171,0-0.343-0.043-0.5-0.136c-5.062-2.957-11.626-1.199-11.691-1.182c-0.529,0.146-1.076-0.164-1.222-0.693
		s0.165-1.076,0.694-1.222c0.075-0.021,1.886-0.513,4.403-0.596c1.483-0.049,2.911,0.055,4.243,0.307
		c1.687,0.32,3.227,0.882,4.574,1.67c0.474,0.277,0.633,0.886,0.356,1.359C133.079,53.42,132.747,53.596,132.405,53.596
		L132.405,53.596z M132.405,53.596"/>
</g>
<g>
	<path fill="#676767" d="M126,8c-5.523,0-10,4.477-10,10c0,5.522,4.477,9.999,10,9.999c5.522,0,10-4.477,10-9.999
		C136,12.477,131.522,8,126,8L126,8z M130.353,22.512c-0.128,0.218-0.356,0.34-0.592,0.34c-0.117,0-0.235-0.03-0.344-0.094
		c-1.797-1.051-3.873-1.22-5.299-1.176c-1.579,0.048-2.737,0.359-2.749,0.362c-0.363,0.101-0.739-0.114-0.84-0.478
		c-0.1-0.364,0.114-0.74,0.478-0.841c0.053-0.015,1.299-0.353,3.031-0.41c1.021-0.033,2.003,0.038,2.92,0.212
		c1.161,0.22,2.221,0.606,3.148,1.149C130.433,21.768,130.543,22.186,130.353,22.512L130.353,22.512z M131.624,19.873
		c-0.151,0.257-0.422,0.401-0.7,0.401c-0.14,0-0.28-0.036-0.408-0.111c-2.129-1.243-4.588-1.443-6.276-1.393
		c-1.87,0.058-3.242,0.427-3.256,0.431c-0.431,0.117-0.877-0.137-0.994-0.567c-0.119-0.432,0.135-0.876,0.565-0.995
		c0.062-0.017,1.537-0.418,3.59-0.485c1.209-0.04,2.373,0.044,3.459,0.25c1.376,0.261,2.63,0.719,3.729,1.361
		C131.719,18.99,131.85,19.486,131.624,19.873L131.624,19.873z M132.405,17.471c-0.171,0-0.343-0.043-0.5-0.136
		c-5.062-2.957-11.626-1.199-11.691-1.182c-0.529,0.146-1.076-0.164-1.222-0.693s0.165-1.076,0.694-1.222
		c0.075-0.021,1.886-0.513,4.403-0.596c1.483-0.049,2.911,0.055,4.243,0.307c1.687,0.32,3.227,0.882,4.574,1.67
		c0.474,0.277,0.633,0.886,0.356,1.359C133.079,17.295,132.747,17.471,132.405,17.471L132.405,17.471z M132.405,17.471"/>
</g>
</svg>
