<?xml version="1.0" encoding="utf-8"?>
<!-- Generator: Adobe Illustrator 21.0.0, SVG Export Plug-In . SVG Version: 6.00 Build 0)  -->
<svg version="1.1" id="Layer_1" xmlns="http://www.w3.org/2000/svg" xmlns:xlink="http://www.w3.org/1999/xlink" x="0px" y="0px"
	 viewBox="0 0 675 150" style="enable-background:new 0 0 675 150;" xml:space="preserve">
<style type="text/css">
	.st0{fill:#FFFFFF;}
	.st1{enable-background:new    ;}
</style>
<title>dfdasArtboard 1logo</title>
<polygon class="st0" points="437.2,0 352.2,70.5 379.5,83.7 329.4,150 421.1,69.4 398.6,61.6 "/>
<g class="st1">
	<path class="st0" d="M16,96.2v4.1c0,5-2.5,7.8-7.3,7.8s-7.3-2.8-7.3-7.8V84.2c0-5,2.5-7.8,7.3-7.8s7.3,2.8,7.3,7.8v3h-4.6v-3.3
		c0-2.2-1-3.1-2.5-3.1s-2.5,0.8-2.5,3.1v16.8c0,2.2,1,3,2.5,3s2.5-0.8,2.5-3v-4.4H16z"/>
	<path class="st0" d="M18.5,84.2c0-5,2.6-7.8,7.4-7.8c4.8,0,7.4,2.8,7.4,7.8v16.2c0,5-2.6,7.8-7.4,7.8c-4.8,0-7.4-2.8-7.4-7.8V84.2z
		 M23.4,100.7c0,2.2,1,3.1,2.5,3.1s2.5-0.8,2.5-3.1V83.9c0-2.2-1-3.1-2.5-3.1s-2.5,0.8-2.5,3.1V100.7z"/>
	<path class="st0" d="M36.3,90.1h8.9v4.4h-8.9V90.1z"/>
	<path class="st0" d="M53.4,89.8h6.7v4.4h-6.7v9.1h8.4v4.4H48.5V76.7h13.3v4.4h-8.4V89.8z"/>
	<path class="st0" d="M64.9,76.7h7.7c4.9,0,7.3,2.7,7.3,7.7v15.7c0,5-2.4,7.7-7.3,7.7h-7.7V76.7z M69.8,81.2v22.2h2.8
		c1.6,0,2.5-0.8,2.5-3V84.2c0-2.2-0.9-3-2.5-3H69.8z"/>
	<path class="st0" d="M105.7,107.8h-4.9l-0.8-5.6h-6l-0.8,5.6h-4.5l5-31.1h7.2L105.7,107.8z M94.6,98h4.7L97,82.2h-0.1L94.6,98z"/>
	<path class="st0" d="M129.1,96.2v4.1c0,5-2.5,7.8-7.3,7.8c-4.8,0-7.3-2.8-7.3-7.8V84.2c0-5,2.5-7.8,7.3-7.8c4.8,0,7.3,2.8,7.3,7.8
		v3h-4.6v-3.3c0-2.2-1-3.1-2.5-3.1s-2.5,0.8-2.5,3.1v16.8c0,2.2,1,3,2.5,3s2.5-0.8,2.5-3v-4.4H129.1z"/>
	<path class="st0" d="M147.9,107.8h-4.9l-0.8-5.6h-6l-0.8,5.6h-4.5l5-31.1h7.2L147.9,107.8z M136.7,98h4.7l-2.3-15.7H139L136.7,98z"
		/>
	<path class="st0" d="M164.6,84.4v4c0,5-2.4,7.7-7.3,7.7H155v11.7h-4.9V76.7h7.2C162.2,76.7,164.6,79.4,164.6,84.4z M155,81.2v10.5
		h2.3c1.6,0,2.4-0.7,2.4-2.9v-4.7c0-2.2-0.8-2.9-2.4-2.9H155z"/>
	<path class="st0" d="M181.4,84.4v4c0,5-2.4,7.7-7.3,7.7h-2.3v11.7h-4.9V76.7h7.2C179,76.7,181.4,79.4,181.4,84.4z M171.8,81.2v10.5
		h2.3c1.6,0,2.4-0.7,2.4-2.9v-4.7c0-2.2-0.8-2.9-2.4-2.9H171.8z"/>
	<path class="st0" d="M188.5,89.8h6.7v4.4h-6.7v9.1h8.4v4.4h-13.3V76.7H197v4.4h-8.4V89.8z"/>
	<path class="st0" d="M200,76.7h4.9v26.7h8v4.4H200V76.7z"/>
	<path class="st0" d="M215,76.7h4.9v26.7h8v4.4H215V76.7z"/>
	<path class="st0" d="M245.9,107.8H241l-0.8-5.6h-6l-0.8,5.6h-4.5l5-31.1h7.2L245.9,107.8z M234.8,98h4.7l-2.3-15.7h-0.1L234.8,98z"
		/>
</g>
<g class="st1">
	<path class="st0" d="M528.5,76.4c4.8,0,7.2,2.8,7.2,7.8v1h-4.6v-1.3c0-2.2-0.9-3.1-2.4-3.1s-2.4,0.8-2.4,3.1c0,2.3,1,4,4.2,6.8
		c4.1,3.6,5.4,6.2,5.4,9.7c0,5-2.5,7.8-7.3,7.8c-4.8,0-7.3-2.8-7.3-7.8v-1.9h4.6v2.2c0,2.2,1,3,2.5,3s2.5-0.8,2.5-3
		c0-2.3-1-4-4.2-6.8c-4.1-3.6-5.4-6.2-5.4-9.7C521.3,79.2,523.8,76.4,528.5,76.4z"/>
	<path class="st0" d="M538.6,76.7h4.9v31.1h-4.9V76.7z"/>
	<path class="st0" d="M551.5,85.3L551.5,85.3l-0.1,22.5H547V76.7h6.1l4.9,18.6h0.1V76.7h4.4v31.1h-5L551.5,85.3z"/>
	<path class="st0" d="M580.2,96.2v4.1c0,5-2.5,7.8-7.3,7.8c-4.8,0-7.3-2.8-7.3-7.8V84.2c0-5,2.5-7.8,7.3-7.8c4.8,0,7.3,2.8,7.3,7.8
		v3h-4.6v-3.3c0-2.2-1-3.1-2.5-3.1s-2.5,0.8-2.5,3.1v16.8c0,2.2,1,3,2.5,3s2.5-0.8,2.5-3v-4.4H580.2z"/>
	<path class="st0" d="M588,89.8h6.7v4.4H588v9.1h8.4v4.4h-13.3V76.7h13.3v4.4H588V89.8z"/>
	<path class="st0" d="M609.4,80.6c3.8,0,4.6-1.8,5.4-3.9h3.3v31.1h-4.9V84.1h-3.8V80.6z"/>
	<path class="st0" d="M638.4,100.1c0,5.2-2.4,8.1-7.5,8.1c-4.8,0-7.3-2.8-7.3-7.8v-0.8h4.6v1.1c0,2.2,1,3.1,2.5,3.1
		c1.7,0,2.7-0.8,2.7-3.8v-5.6h-0.1c-0.8,1.8-2.3,2.7-4.4,2.7c-3.6,0-5.4-2.5-5.4-7.1v-5.7c0-5,2.6-7.8,7.4-7.8s7.4,2.8,7.4,7.8
		V100.1z M633.5,89.5v-5.6c0-2.2-1-3-2.5-3s-2.5,0.8-2.5,3v5.6c0,2.2,1,3.1,2.5,3.1S633.5,91.7,633.5,89.5z"/>
	<path class="st0" d="M648.6,108.2c-4.9,0-7.6-2.8-7.6-7.8v-2.4c0-3,0.9-5.2,3-6.4v-0.1c-2-1.1-3-3.2-3-6.2v-1c0-5,2.7-7.8,7.6-7.8
		s7.6,2.8,7.6,7.8v1c0,3.1-1,5.1-3,6.2v0.1c2.1,1.2,3,3.5,3,6.4v2.4C656.3,105.4,653.5,108.2,648.6,108.2z M645.9,86.1
		c0,2.5,1.2,3.3,2.8,3.3c1.6,0,2.8-0.8,2.8-3.3v-1.7c0-2.8-1.2-3.6-2.8-3.6s-2.8,0.8-2.8,3.6V86.1z M648.6,103.8
		c1.6,0,2.7-0.8,2.8-3.5v-2.9c0-2.4-1-3.5-2.8-3.5s-2.8,1.1-2.8,3.5v2.9C645.9,103,647.1,103.8,648.6,103.8z"/>
	<path class="st0" d="M673.5,100.1c0,5.2-2.4,8.1-7.5,8.1c-4.8,0-7.3-2.8-7.3-7.8v-0.8h4.6v1.1c0,2.2,1,3.1,2.5,3.1
		c1.7,0,2.7-0.8,2.7-3.8v-5.6h-0.1c-0.8,1.8-2.3,2.7-4.4,2.7c-3.6,0-5.4-2.5-5.4-7.1v-5.7c0-5,2.6-7.8,7.4-7.8s7.4,2.8,7.4,7.8
		V100.1z M668.7,89.5v-5.6c0-2.2-1-3-2.5-3s-2.5,0.8-2.5,3v5.6c0,2.2,1,3.1,2.5,3.1S668.7,91.7,668.7,89.5z"/>
</g>
</svg>
