<?xml version="1.0" encoding="utf-8"?>
<!-- Generator: Adobe Illustrator 16.0.0, SVG Export Plug-In . SVG Version: 6.00 Build 0)  -->
<!DOCTYPE svg PUBLIC "-//W3C//DTD SVG 1.1//EN" "http://www.w3.org/Graphics/SVG/1.1/DTD/svg11.dtd">
<svg version="1.1" id="Layer_1" xmlns="http://www.w3.org/2000/svg" xmlns:xlink="http://www.w3.org/1999/xlink" x="0px" y="0px"
	 width="300px" height="300px" viewBox="-60 -113.9 300 300" enable-background="new -60 -113.9 300 300" xml:space="preserve">
<rect x="-60" y="-113.9" display="none" fill="#231F20" width="300" height="300"/>
<title>dfdasArtboard 1logo</title>
<g>
	<defs>
		<rect id="SVGID_1_" x="-50.234" y="-113.9" width="280.467" height="300"/>
	</defs>
	<clipPath id="SVGID_2_">
		<use xlink:href="#SVGID_1_"  overflow="visible"/>
	</clipPath>
	<path clip-path="url(#SVGID_2_)" fill="#FFFFFF" d="M-44.108-104.969c0,13.747,0.061,23.659,0.061,38.73
		c0,0.422,0.297,0.962,0.78,1.021c1.921,0.117,5.043,0.3,6.845,0.056c0.42-0.056,0.661-0.476,0.661-1.021
		c0-15.075-0.123-25.041-0.123-38.725c0-0.724,0.724-0.901,1.263-0.901c1.503,0,2.943,0.056,3.962,0.056
		c0.54,0,1.021-0.298,1.021-0.838c0.061-2.465,0-4.683-0.059-6.186c0-0.54-0.362-1.079-0.901-1.079
		c-3.663-0.123-15.133,0.057-18.555,0c-0.481,0-1.021,0.296-1.021,0.773c0,1.447-0.062,4.872-0.062,6.429
		c0,0.417,0.482,0.778,0.961,0.844c1.502,0.117,3.183,0,4.444,0C-44.529-105.807-44.108-105.329-44.108-104.969"/>
	<path clip-path="url(#SVGID_2_)" fill="#FFFFFF" d="M-25.869-65.037c1.502,0.12,3.544,0.057,5.045-0.124
		c0.781-0.115,1.563-0.476,1.62-1.258c0.301-3.964,0.06-16.335,0.18-18.67c0-0.359,0.121-0.904,0.542-0.904
		c1.08-0.068,2.342-0.181,3.244,0c0.42,0.058,0.778,0.545,0.778,0.904c0.121,1.917-0.06,11.943-0.06,18.548
		c0,0.661,0.18,1.561,0.781,1.503c1.382-0.124,3.362,0.179,5.164-0.124c0.602-0.115,1.203-0.476,1.203-1.136
		c-0.063-6.303,0.478-35.55,0.24-46.415c0-0.485-0.181-1.084-0.603-1.142c-1.559-0.123-4.622,0.296-6.424,0.12
		c-0.301-0.063-0.42,0.537-0.42,0.779c-0.059,3.365,0.06,12.484,0,16.573c0,0.478-0.18,0.958-0.659,1.08
		c-0.961,0.176-2.463,0.302-3.365,0.059c-0.421-0.117-0.421-0.661-0.421-1.138c-0.237-5.287,0.121-13.029,0.121-16.331
		c0-0.544-0.358-0.963-0.899-1.021c-1.623-0.12-4.443,0-6.547,0c-0.36,0-0.6,0.653-0.6,1.021
		c-0.178,11.166-0.178,39.449,0.122,46.293C-26.828-65.821-26.468-65.1-25.869-65.037"/>
	<path clip-path="url(#SVGID_2_)" fill="#FFFFFF" d="M-3.749-65.037c2.402,0.179,11.049,0.354,15.071,0.12
		c0.42,0,0.962-0.3,0.962-0.787c-0.061-1.918-0.061-5.282-0.061-7.266c0-0.478-0.481-0.778-0.958-0.778
		c-1.923-0.059-5.289,0.243-6.609,0.126c-0.54-0.063-1.079-0.423-1.079-0.905c-0.062-2.285,0-8.287,0.118-9.542
		c0.061-0.426,0.3-0.904,0.723-0.904c0.899,0,4.201,0.059,5.4,0c0.423,0,0.663-0.422,0.663-0.841c0-1.863,0.3-6.124,0.181-8.048
		c0-0.419-0.42-0.72-0.844-0.72c-1.559,0.058-4.318,0.121-5.583-0.059c-0.362-0.059-0.721-0.419-0.721-0.782
		c-0.061-2.822,0.062-7.446,0.062-9.308c0-0.36,0.479-0.658,0.899-0.658c2.042-0.059,5.104,0.059,6.905,0
		c0.302,0,0.66-0.359,0.66-0.724c0-2.163,0.123-5.102,0.063-6.842c0-0.481-0.482-0.721-0.964-0.721
		c-4.265-0.059-11.287-0.122-14.951-0.059c-0.3,0-0.659,0.361-0.659,0.653C-4.65-109.111-4.41-84.428-4.41-66.181
		C-4.41-65.821-4.229-65.1-3.749-65.037"/>
	<path clip-path="url(#SVGID_2_)" fill="#FFFFFF" d="M-33.565-34.951c-0.206,0-0.308-0.507-0.308-0.71c0-1.122-0.1-2.252-0.1-3.576
		c0-5.105,0.203-11.438,0.408-16.547c0-0.502,0.102-1.122,0.102-1.633c0-0.71-0.308-1.322-1.021-1.422
		c-0.715-0.101-1.635-0.101-2.656-0.101c-2.247,0-4.801,0.101-6.943,0.101h-1.43c-0.715,0-1.02,0.606-1.02,1.422
		c0,28.083,0.102,48.507,0.102,79.444c0,0.921,0.408,1.941,1.326,1.941h10.007c0.713,0,1.124-0.82,1.124-1.531
		c-0.103-3.675-0.103-7.559-0.103-11.133c0-4.386,0-8.271,0.203-10.923V0.28c0-0.41,0-1.636,0.207-1.636
		c0.101,0,0.303,0.406,0.611,1.737c0.51,2.042,4.186,16.749,5.719,22.157c0.206,0.609,0.51,1.43,1.226,1.43
		c2.144,0,6.431,0.101,9.802,0.101c1.736,0,3.167,0,4.186-0.101c0.408-0.104,0.613-0.611,0.613-1.121c0-0.209,0-0.511-0.103-0.712
		C-15.594,11.819-27.03-22.596-27.03-22.596c-0.306-0.917,11.436-28.894,14.091-34.202c0.101-0.209,0.101-0.41,0.101-0.62
		c0-0.816-0.715-1.422-1.428-1.422c-1.839,0-5.821,0.304-9.396,0.304c-0.916,0-1.734-0.104-2.553-0.104
		c-0.611,0-1.122,0.82-1.326,1.431c-2.451,8.78-4.085,16.23-5.515,21.335C-33.261-35.151-33.463-34.951-33.565-34.951"/>
	<path clip-path="url(#SVGID_2_)" fill="#FFFFFF" d="M13.846,11.598c-2.691-0.083-7.396,0.334-9.245,0.167
		c-0.759-0.083-1.516-0.586-1.516-1.255C3,7.312,3.085-1.101,3.252-2.866c0.084-0.586,0.42-1.255,1.008-1.255
		c1.264,0,5.888,0.083,7.568,0c0.59,0,0.925-0.595,0.925-1.181c0-2.604,0.42-8.58,0.252-11.266c0-0.586-0.586-1.005-1.177-1.005
		c-2.184,0.079-6.053,0.167-7.819-0.088C3.506-17.745,3-18.251,3-18.753c-0.084-3.951,0.085-10.421,0.085-13.033
		c0-0.502,0.672-0.924,1.261-0.924c2.86-0.083,7.145,0.088,9.669,0c0.418,0,0.925-0.507,0.925-1.009
		c0-3.024,0.167-7.144,0.084-9.584c0-0.669-0.674-1.003-1.348-1.003C7.711-44.4-2.127-44.476-7.255-44.4
		c-0.42,0-0.925,0.509-0.925,0.928c-0.253,5.549,0.083,40.103,0.083,65.666c0,0.502,0.254,1.512,0.925,1.591
		c2.137,0.163,7.793,0.327,13.082,0.334l8.926-12.154C14.579,11.74,14.221,11.598,13.846,11.598"/>
	<path clip-path="url(#SVGID_2_)" fill="#FFFFFF" d="M37.117,23.706c0.309-0.027,0.556-0.139,0.757-0.315l-1.037,0.327
		C36.929,23.709,37.034,23.709,37.117,23.706"/>
	<path clip-path="url(#SVGID_2_)" fill="#FFFFFF" d="M47.545-42.124c0.421-1.181-0.25-2.946-1.515-2.862
		c-2.268,0.083-6.304-0.083-7.735,0c-1.178,0.083-2.184,0.929-2.438,2.101c-0.841,3.45-1.68,8.58-2.098,11.02
		c-0.422,2.263-0.509,5.629-1.685,0c-0.755-3.448-1.85-7.906-2.352-11.02c-0.17-1.255-1.432-2.184-2.691-2.268
		c-2.441-0.168-5.298-0.168-7.901,0c-0.927,0.083-1.853,1.096-1.599,1.932c1.85,5.468,7.146,22.363,9.248,30.185
		c0.253,0.924,0.253,1.431,0.253,2.353c0.044,0.891,0.023,3.146-0.027,6.085l14.742-20.064
		C44.089-32.18,46.916-40.446,47.545-42.124"/>
	<path clip-path="url(#SVGID_2_)" fill="#FFFFFF" d="M-18.538,111.128c-0.101-3.263-0.101-8.979-0.101-12.35
		c0-0.815-0.816-1.326-1.634-1.326c-3.268-0.1-8.986,0.41-11.233,0.2c-0.917-0.104-1.838-0.716-1.838-1.532
		c-0.103-3.883,0-14.088,0.203-16.233c0.103-0.717,0.513-1.532,1.226-1.532c1.535,0,7.149,0.105,9.191,0
		c0.715,0,1.122-0.715,1.122-1.427c0-3.164,0.51-10.418,0.305-13.682c0-0.72-0.711-1.23-1.427-1.23
		c-2.656,0.11-7.351,0.205-9.496-0.1c-0.614-0.105-1.227-0.721-1.227-1.327c-0.1-4.8,0.103-12.659,0.103-15.829
		c0-0.611,0.818-1.121,1.53-1.121c3.474-0.105,8.681,0.104,11.745,0c0.511,0,1.122-0.615,1.122-1.226
		c0-3.676,0.206-8.685,0.103-11.64c0-0.816-0.817-1.23-1.635-1.23c-7.246-0.095-19.197-0.201-25.424-0.095
		c-0.511,0-1.122,0.606-1.122,1.117c-0.308,6.742,0.103,48.711,0.103,79.751c0,0.616,0.305,1.839,1.119,1.938
		c4.086,0.306,18.788,0.612,25.632,0.206C-19.456,112.46-18.538,111.95-18.538,111.128"/>
	<path clip-path="url(#SVGID_2_)" fill="#FFFFFF" d="M-5.113,43.388c-2.521,0.083-5.884,0.502-9.08,0
		c-1.008-0.172-1.513,1.092-1.513,2.102c-0.085,8.575,0,40.608,0.253,64.233c0,0.838,0.335,1.929,1.26,2.013
		c4.625,0.507,14.632,0,20.935,0c0.925,0,2.1-0.501,2.186-1.51c0.168-3.448-0.086-6.223,0-9.25c0-1.01-1.008-1.512-2.017-1.512
		c-2.857,0-5.636,0.167-8.743,0c-1.094-0.083-1.936-0.924-1.936-2.017c-0.503-15.641,0.254-43.969-0.167-51.624
		C-4.021,44.816-3.349,43.304-5.113,43.388"/>
	<path clip-path="url(#SVGID_2_)" fill="#FFFFFF" d="M23.979,100.052c-0.755-0.086-1.514-0.588-1.514-1.262
		c-0.083-3.193,0-11.6,0.168-13.366c0.085-0.59,0.42-1.26,1.009-1.26c1.264,0,5.883,0.079,7.566,0c0.587,0,0.926-0.591,0.926-1.177
		c0-2.611,0.421-8.579,0.251-11.27c0-0.588-0.59-1.006-1.178-1.006c-2.187,0.082-6.052,0.165-7.818-0.086
		c-0.504-0.085-1.009-0.588-1.009-1.095c-0.083-3.95,0.083-10.425,0.083-13.032c0-0.501,0.674-0.925,1.26-0.925
		c2.858-0.083,7.146,0.089,9.668,0c0.421,0,0.925-0.502,0.925-1.009c0-3.024,0.169-7.143,0.083-9.583
		c0-0.674-0.671-1.005-1.344-1.005c-5.968-0.088-15.805-0.172-20.932-0.088c-0.425,0-0.927,0.507-0.927,0.926
		c-0.25,5.549,0.087,40.105,0.087,65.662c0,0.505,0.25,1.515,0.921,1.593c1.461,0.113,4.575,0.221,8.089,0.286l7.338-12.329
		C26.146,100.084,24.784,100.126,23.979,100.052"/>
	<path clip-path="url(#SVGID_2_)" fill="#FFFFFF" d="M50.506,45.317c-0.334-0.837-0.671-1.846-1.513-1.846
		c-2.271,0.085-6.726,0-9.586-0.167c-0.923-0.088-1.092,1.345-1.008,2.186c0.157,2.933-0.469,20.74-0.718,37.656L53.89,55.905
		C52.515,51.469,51.304,47.626,50.506,45.317"/>
	<path clip-path="url(#SVGID_2_)" fill="#FFFFFF" d="M63.286,112.071c1.092-0.25,1.344-1.338,1.513-2.348
		c0.135-0.908,0.268-1.896,0.398-2.93l-6.134,5.479C60.556,112.31,62.07,112.317,63.286,112.071"/>
	<path clip-path="url(#SVGID_2_)" fill="#FFFFFF" d="M68.835,110.392c0.082,0.843,0.589,1.851,1.43,1.851
		c3.112,0.088,8.405,0.424,10.425,0.173c1.175-0.173,1.09-1.771,1.09-2.863c0.117-4.713,0.113-10.904,0.038-17.607l-13.078,11.678
		C68.735,106.428,68.759,108.912,68.835,110.392"/>
	<path clip-path="url(#SVGID_2_)" fill="#FFFFFF" d="M84.978,110.478c0,0.505,0.254,1.515,0.928,1.593
		c3.359,0.26,15.468,0.512,21.103,0.172c0.586,0,1.343-0.422,1.343-1.091c-0.083-2.691-0.083-7.398-0.083-10.176
		c0-0.671-0.674-1.093-1.347-1.093c-2.688-0.083-7.396,0.335-9.246,0.169c-0.757-0.086-1.515-0.588-1.515-1.262
		c-0.085-3.193,0-11.6,0.171-13.366c0.08-0.59,0.418-1.26,1.004-1.26c1.26,0,5.889,0.079,7.571,0c0.587,0,0.925-0.591,0.925-1.177
		c0-2.611,0.419-8.579,0.252-11.27c0-0.399-0.284-0.708-0.645-0.875L84.927,89.166C84.955,96.431,84.978,103.768,84.978,110.478"/>
	<path clip-path="url(#SVGID_2_)" fill="#FFFFFF" d="M139.536,43.806c-1.188,0-2.553,0.05-3.904,0.07l-4.663,4.165
		c0.009,1.273,0.079,2.666,0.079,3.923c0,6.307,0.335,14.203,0.335,20.43c0,1.177-0.168,1.767-0.421,1.767
		c-0.889,0-3.584-12.212-5.47-21.222l-14.655,13.082c-0.091,7.324-0.137,15.61-0.137,23.354c0,8.324,0.083,15.977,0.252,21.104
		c0,1.091,0.757,1.938,1.765,1.938h0.586c1.098,0,2.356,0.084,3.7,0.084c2.104,0,5.046-0.169,5.046-2.357
		c0-10.007,0.085-22.78,0.085-27.661c0-1.348,0.251-1.765,0.502-1.765c0.423,0,0.926,0.924,1.009,1.259
		c0.929,3.361,4.629,21.692,6.479,28.586c0.586,2.105,3.528,2.105,5.884,2.105h1.093c2.524,0,4.791,0,4.791-2.774
		c0-12.277,0.424-45.151,0.424-58.774v-5.461C142.315,44.058,140.968,43.806,139.536,43.806"/>
	<path clip-path="url(#SVGID_2_)" fill="#FFFFFF" d="M172.433,43.723c-5.132-0.167-21.186,0.083-25.979,0
		c-0.674,0-1.431,0.422-1.431,1.093c0,2.018-0.088,6.809-0.088,8.997c0,0.591,0.674,1.088,1.348,1.177c2.101,0.166,4.462,0,6.224,0
		c0.422,0,1.009,0.674,1.009,1.176c0,19.256,0.083,33.126,0.083,54.227c0,0.591,0.419,1.344,1.093,1.429
		c2.691,0.172,7.065,0.422,9.584,0.083c0.591-0.083,0.926-0.669,0.926-1.426c0-21.104-0.168-35.057-0.168-54.229
		c0-1.009,1.009-1.259,1.767-1.259c2.101,0,4.118,0.083,5.549,0.083c0.759,0,1.429-0.422,1.429-1.176
		c0.083-3.448,0-6.558-0.085-8.659C173.691,44.48,173.186,43.723,172.433,43.723"/>
	<path clip-path="url(#SVGID_2_)" fill="#FFFFFF" d="M188.03,59.949c0-2.859,1.008-5.545,3.279-5.545
		c1.768,0,2.605,3.276,2.521,5.21c0,0-0.251,4.624-0.163,6.726c0,0.585,0.5,1.264,1.09,1.264c1.934,0.083,6.976,0.167,9.164,0
		c0.586-0.084,0.922-0.846,0.922-1.348v-8.323c0-8.575-4.704-15.05-13.032-14.883c-10.255,0.167-14.879,7.651-14.879,17.321v7.148
		c0,9.921,17.235,18.908,17.066,24.297l-0.168,4.703c-0.083,2.105-0.335,4.122-2.775,4.122c-2.351,0-3.281-3.276-3.281-6.052v-4.123
		c0-0.925,0-2.184-0.841-2.184c-1.929,0-7.896,0.423-9.499,0.339c-0.669,0-0.926,1.004-0.926,1.761
		c-0.079,1.684-0.079,4.374-0.079,4.374c-0.255,11.012,6.893,17.486,14.459,17.486c9.335,0,14.466-6.303,14.466-15.976v-5.801
		c0-10.09-17.323-19.672-17.323-26.145V59.949z"/>
	<path clip-path="url(#SVGID_2_)" fill="#FFFFFF" d="M28.459,23.371c-0.923,0-1.68-1.102-1.764-2.105
		c-0.186-4.21,0.176-17.688,0.31-25.865L14.836,11.965c0.209,0.185,0.355,0.428,0.355,0.725c0,2.774,0,7.478,0.086,10.173
		c0,0.674-0.758,1.093-1.345,1.093c-2.057,0.122-4.98,0.167-8.022,0.16l-8.851,12.048l39.778-12.447
		C34.607,23.835,30.805,23.445,28.459,23.371"/>
	<path clip-path="url(#SVGID_2_)" fill="#FFFFFF" d="M67.827,86.517c-1.021,4.661-1.788,13.556-2.63,20.276l3.544-3.171
		c0.013-6.584,0.177-15.001,0.177-16.771C68.917,83.324,67.911,86.014,67.827,86.517"/>
	<path clip-path="url(#SVGID_2_)" fill="#FFFFFF" d="M114.316,43.723h0.25c2.943,0,6.056,0.167,7.902,0.167
		c0.841,0,1.347,0.842,1.515,1.767c0.353,1.72,0.887,4.332,1.509,7.282l5.477-4.897c0-0.09-0.007-0.189-0.007-0.28
		c0-2.188,0.253-3.955,1.682-3.955c0.669,0,1.432,0.084,2.189,0.084c0.267,0,0.53-0.014,0.799-0.014l94.602-84.493L135.036-9.81
		l79.729-103.957H107.206L41.747-24.663c-1.409,4.512-2.641,8.755-3.115,11.124c-0.252,1.26-0.084,1.934,0,3.193
		c0.17,3.027-0.168,26.312,0,31.443c0,0.809-0.186,1.8-0.758,2.294L81.337,9.79L53.89,55.905c1.532,4.948,3.26,10.632,4.854,15.813
		c1.012,3.281,1.516,2.356,2.187,0c3.111-10.762,6.138-19.927,7.986-26.568c0.253-1.005,1.011-1.762,1.938-1.679
		c3.277,0.168,6.977,0,8.823,0c0.926,0,1.181,1.345,1.181,2.353c0.122,7.135,0.775,28.421,0.959,46.121l3.109-2.779
		c-0.083-20.394-0.217-40.262-0.032-44.35c0-0.419,0.505-0.926,0.925-0.926c5.13-0.084,14.964,0,20.933,0.088
		c0.678,0,1.348,0.331,1.348,1.005c0.083,2.44-0.089,6.559-0.089,9.583c0,0.507-0.502,1.009-0.921,1.009
		c-2.52,0.089-6.809-0.083-9.673,0c-0.584,0-1.258,0.419-1.258,0.925c0,2.607-0.168,9.082-0.085,13.032
		c0,0.507,0.508,1.01,1.01,1.095c1.762,0.251,5.632,0.168,7.821,0.086c0.184,0,0.365,0.055,0.532,0.131l5.397-4.822
		c0.12-9.379,0.302-17.176,0.537-20.197C111.542,43.723,112.216,43.723,114.316,43.723"/>
	<path clip-path="url(#SVGID_2_)" fill="#FFFFFF" d="M55.971,112.243c-1.007,0-1.092-1.343-1.26-2.351
		c-1.513-7.229-2.355-20.94-3.028-23.548c-0.165-0.497-1.26-3.527-1.26,0.088c0,6.141-0.167,14.46,0.084,23.46
		c0,1.008-0.251,2.268-1.262,2.351c-2.354,0.257-7.146,0-9.837,0c-1.174,0-1.427-1.682-1.511-2.857
		c-0.379-6.091-0.368-16-0.215-26.239l-10.047,16.882c1.927-0.08,4.075-0.189,5.593-0.145c0.672,0,1.345,0.422,1.345,1.093
		c0,2.777,0,7.484,0.083,10.176c0,0.669-0.757,1.091-1.345,1.091c-3.187,0.189-8.443,0.193-13.015,0.114L-23.59,186.1l82.653-73.828
		C57.971,112.243,56.893,112.208,55.971,112.243"/>
</g>
</svg>
