<?xml version="1.0" encoding="utf-8"?>
<!-- Generator: Adobe Illustrator 21.0.0, SVG Export Plug-In . SVG Version: 6.00 Build 0)  -->
<svg version="1.1" id="Layer_1" xmlns="http://www.w3.org/2000/svg" xmlns:xlink="http://www.w3.org/1999/xlink" x="0px" y="0px"
	 viewBox="0 0 100 100" style="enable-background:new 0 0 100 100;" xml:space="preserve">
<style type="text/css">
	.st0{fill:#FFFFFF;}
	.st1{enable-background:new    ;}
</style>
<title>dfdasArtboard 1logo</title>
<path class="st0" d="M12.4,44.7l15.4-4.7l-4.6-4.3l15.3-4.4l3.8,5.5l-9.6,2.4l3.6,4.4L12.4,44.7z M38.1,37.2l-7.9,1.6l2.8,3.7
	l-10.7,1.2l12.5-0.6l-3-4.1L38.1,37.2z"/>
<g class="st1">
	<path class="st0" d="M2.8,75h5.5v1.6H6.5v9.7H4.7v-9.7H2.8V75z"/>
	<path class="st0" d="M10.9,86.4H9.1V75h1.8v4.9h2V75h1.8v11.3h-1.8v-4.9h-2V86.4z"/>
	<path class="st0" d="M17.8,79.8h2.4v1.6h-2.4v3.3h3.1v1.6H16V75h4.9v1.6h-3.1V79.8z"/>
	<path class="st0" d="M26.8,81.9l-0.6,1v3.5h-1.8V75h1.8V80h0l2.3-4.9h1.8l-2.5,5.1l2.5,6.3h-1.8L26.8,81.9z"/>
	<path class="st0" d="M33,79.8h2.4v1.6H33v3.3h3.1v1.6h-4.9V75h4.9v1.6H33V79.8z"/>
	<path class="st0" d="M38.8,82.6L36.6,75h1.9l1.3,5.2h0l1.3-5.2h1.7l-2.2,7.6v3.8h-1.8V82.6z"/>
	<path class="st0" d="M47.9,79.8h2.4v1.6h-2.4v3.3h3.1v1.6h-4.9V75h4.9v1.6h-3.1V79.8z"/>
	<path class="st0" d="M52,75h1.8v9.7h2.9v1.6H52V75z"/>
	<path class="st0" d="M59.3,79.8h2.4v1.6h-2.4v3.3h3.1v1.6h-4.9V75h4.9v1.6h-3.1V79.8z"/>
	<path class="st0" d="M67.2,83.1L67.2,83.1l1.2-8h2.5v11.3h-1.7v-8.1h0L68,86.4h-1.7l-1.3-8h0v8h-1.6V75h2.5L67.2,83.1z"/>
	<path class="st0" d="M74,79.8h2.4v1.6H74v3.3h3.1v1.6h-4.9V75h4.9v1.6H74V79.8z"/>
	<path class="st0" d="M79.8,78.2L79.8,78.2l0,8.2h-1.6V75h2.2l1.8,6.8h0V75h1.6v11.3H82L79.8,78.2z"/>
	<path class="st0" d="M84.6,75h5.5v1.6h-1.9v9.7h-1.8v-9.7h-1.9V75z"/>
	<path class="st0" d="M93.3,74.9c1.7,0,2.6,1,2.6,2.8v0.4h-1.7v-0.5c0-0.8-0.3-1.1-0.9-1.1s-0.9,0.3-0.9,1.1c0,0.8,0.4,1.4,1.5,2.5
		c1.5,1.3,2,2.3,2,3.5c0,1.8-0.9,2.8-2.7,2.8c-1.7,0-2.7-1-2.7-2.8V83h1.7v0.8c0,0.8,0.4,1.1,0.9,1.1s0.9-0.3,0.9-1.1
		c0-0.8-0.4-1.4-1.5-2.5c-1.5-1.3-2-2.2-2-3.5C90.7,76,91.5,74.9,93.3,74.9z"/>
</g>
<g class="st1">
	<path class="st0" d="M25.7,95.6v0.9c0,1.1-0.6,1.7-1.6,1.7c-1.1,0-1.6-0.6-1.6-1.7V93c0-1.1,0.6-1.7,1.6-1.7c1.1,0,1.6,0.6,1.6,1.7
		v0.7h-1v-0.7c0-0.5-0.2-0.7-0.6-0.7c-0.3,0-0.6,0.2-0.6,0.7v3.7c0,0.5,0.2,0.7,0.6,0.7c0.3,0,0.6-0.2,0.6-0.7v-1H25.7z"/>
	<path class="st0" d="M26.3,93c0-1.1,0.6-1.7,1.6-1.7s1.6,0.6,1.6,1.7v3.6c0,1.1-0.6,1.7-1.6,1.7s-1.6-0.6-1.6-1.7V93z M27.4,96.6
		c0,0.5,0.2,0.7,0.6,0.7c0.3,0,0.6-0.2,0.6-0.7v-3.7c0-0.5-0.2-0.7-0.6-0.7c-0.3,0-0.6,0.2-0.6,0.7V96.6z"/>
	<path class="st0" d="M30.2,94.3h2v1h-2V94.3z"/>
	<path class="st0" d="M34,94.2h1.5v1H34v2h1.9v1h-3v-6.9h3v1H34V94.2z"/>
	<path class="st0" d="M36.6,91.3h1.7c1.1,0,1.6,0.6,1.6,1.7v3.5c0,1.1-0.5,1.7-1.6,1.7h-1.7V91.3z M37.7,92.3v4.9h0.6
		c0.3,0,0.6-0.2,0.6-0.7V93c0-0.5-0.2-0.7-0.6-0.7H37.7z"/>
	<path class="st0" d="M45.6,98.2h-1.1l-0.2-1.3H43l-0.2,1.3h-1l1.1-6.9h1.6L45.6,98.2z M43.2,96h1l-0.5-3.5h0L43.2,96z"/>
	<path class="st0" d="M50.8,95.6v0.9c0,1.1-0.6,1.7-1.6,1.7c-1.1,0-1.6-0.6-1.6-1.7V93c0-1.1,0.6-1.7,1.6-1.7c1.1,0,1.6,0.6,1.6,1.7
		v0.7h-1v-0.7c0-0.5-0.2-0.7-0.6-0.7c-0.3,0-0.6,0.2-0.6,0.7v3.7c0,0.5,0.2,0.7,0.6,0.7c0.3,0,0.6-0.2,0.6-0.7v-1H50.8z"/>
	<path class="st0" d="M55,98.2h-1.1l-0.2-1.3h-1.3l-0.2,1.3h-1l1.1-6.9h1.6L55,98.2z M52.5,96h1L53,92.5h0L52.5,96z"/>
	<path class="st0" d="M58.7,93v0.9c0,1.1-0.5,1.7-1.6,1.7h-0.5v2.6h-1.1v-6.9h1.6C58.1,91.3,58.7,91.9,58.7,93z M56.5,92.3v2.3h0.5
		c0.3,0,0.5-0.2,0.5-0.7v-1c0-0.5-0.2-0.7-0.5-0.7H56.5z"/>
	<path class="st0" d="M62.4,93v0.9c0,1.1-0.5,1.7-1.6,1.7h-0.5v2.6h-1.1v-6.9h1.6C61.9,91.3,62.4,91.9,62.4,93z M60.3,92.3v2.3h0.5
		c0.3,0,0.5-0.2,0.5-0.7v-1c0-0.5-0.2-0.7-0.5-0.7H60.3z"/>
	<path class="st0" d="M64,94.2h1.5v1H64v2h1.9v1h-3v-6.9h3v1H64V94.2z"/>
	<path class="st0" d="M66.5,91.3h1.1v5.9h1.8v1h-2.9V91.3z"/>
	<path class="st0" d="M69.9,91.3h1.1v5.9h1.8v1h-2.9V91.3z"/>
	<path class="st0" d="M76.7,98.2h-1.1l-0.2-1.3h-1.3l-0.2,1.3h-1l1.1-6.9h1.6L76.7,98.2z M74.2,96h1l-0.5-3.5h0L74.2,96z"/>
</g>
<path class="st0" d="M76.2,28.3l-12.6,3.1l-2.5-2.5l0.2-4.1l11.3-3.2L76.2,28.3z M71.2,28.3l-6.8,2.4l7.1-1.9L71.2,28.3z"/>
<polyline class="st0" points="29.8,55.5 34.1,50 25.2,55.9 27.7,57.5 22.1,63.3 31.8,56.5 29.8,55.5 "/>
<polyline class="st0" points="74.5,53.6 69.7,48.3 79.1,53.6 76.7,55.4 82.6,60.8 72.5,54.7 74.5,53.6 "/>
<polyline class="st0" points="26.3,15.2 32.3,19 25.4,10.7 24.1,13.4 17.7,8.5 25.5,17.4 26.3,15.2 "/>
<polyline class="st0" points="71.3,8.9 65.9,13.4 71.5,4.3 73.2,6.7 78.8,1 72.4,10.9 71.3,8.9 "/>
<path class="st0" d="M80.1,30.7c-4.8,1.6-9.9-0.8-11.3-5.2s1.3-9.3,6.1-10.9s9.9,0.8,11.3,5.2S84.9,29.1,80.1,30.7z M69.8,22.7
	c0,0,3-9.1,13.9-5.3c0,0-5.2-3.1-8.9-1.3C72.2,17.4,70.4,19.8,69.8,22.7L69.8,22.7z"/>
<path class="st0" d="M67.7,29.8l-3.3,0.9l3.3-1.1l-0.1-5.8l-7-6.4L56,17.5l-0.7-0.3l-6.6,1.3L48.3,19l-5.5,1.2L42,21.1l-4,1.1
	l-1.5,6.6l4.7,7.5l-2.8,6.7l3.5,4.2l-0.1,22.6L55.7,70l-1.3-17.2l-3.1-3.2l7.8-3.8v-6l1.8-5.5l-6.8-3.8l-6.5,2.2l-5-1.2l0.5-3.5
	l3.7-0.5l5.5-1.6l11,6l3.5,6.2l-0.4-7.1l0.7-0.1l0.3,8.1l-5.3,7.6l2.5,23.6h0.3l-2-23.2l5-7.3L67.7,29.8z M47.6,50.9l1.1,2.1v15.2
	L47.6,50.9z M47.7,35.8l3.5-1.6l4.5,1.4l-2.3,0.1l-2.3,1.9l1-2.2L51.8,35l-4,1.6l-3.7-2.8L47.7,35.8z M46.1,38.4l2.8,0.2l-2.8,4.1
	l0.1,4L44,41.9L46.1,38.4z M44.8,50.5l0.4,15.9L44,52.2L44.8,50.5z M43.5,34.2l-2.3,0.5L37,27.9l1.3-5.3l3.6-1.1l-1.5,5L43.5,34.2z
	 M46.3,27.2L42.7,28l-1-2l1.6-5.1l4.2-0.9l-2.2,5.1L46.3,27.2z M51.2,26l-3.5,1L47,25.1l2.4-6.3l4.3-0.8l-3,6.6L51.2,26z M57.4,27.8
	l-4.1-1.9l-0.5-1.5l3.6-6.7l4.1-0.2l6.3,6.8l-0.5,0.1l-6.1-5.6l-3.4,5.2L57.4,27.8z M60.5,29l0.3-4.5l0.7-0.2l0.5,1l-0.6,0.3
	L61.3,29l2.4,2.4L60.5,29z"/>
</svg>
