<svg id="Layer_1" data-name="Layer 1" xmlns="http://www.w3.org/2000/svg" viewBox="0 0 100 100">
  <defs>
    <style>
      .cls-1, .cls-2 {
        fill: #fff;
      }

      .cls-2 {
        font-size: 16.19px;
        font-family: BebasNeue, Bebas Neue;
      }

      .cls-3 {
        font-size: 9.85px;
      }
    </style>
  </defs>
  <title>dfdasArtboard 1logo</title>
  <g>
    <path class="cls-1" d="M12.4,44.66l15.35-4.73-4.63-4.28L38.4,31.3l3.85,5.49-9.61,2.42,3.61,4.43Zm25.7-7.44-7.88,1.62L33,42.49,22.33,43.71l12.5-.64-3-4.07Z"/>
    <text class="cls-2" transform="translate(2.71 86.38)">The Key Elements<tspan class="cls-3"><tspan x="19.48" y="11.82">Co-Ed A cappella</tspan></tspan></text>
    <path class="cls-1" d="M76.25,28.29,63.68,31.4l-2.55-2.48.17-4.15L72.6,21.57Zm-5,0-6.82,2.36,7.13-1.86Z"/>
    <polyline class="cls-1" points="29.75 55.54 34.13 50.01 25.17 55.91 27.67 57.48 22.13 63.34 31.84 56.54 29.75 55.54"/>
    <polyline class="cls-1" points="74.49 53.57 69.74 48.35 79.08 53.62 76.7 55.36 82.63 60.83 72.48 54.71 74.49 53.57"/>
    <polyline class="cls-1" points="26.29 15.21 32.27 18.96 25.42 10.71 24.14 13.36 17.7 8.5 25.53 17.4 26.29 15.21"/>
    <polyline class="cls-1" points="71.32 8.86 65.95 13.44 71.52 4.28 73.17 6.72 78.84 0.97 72.39 10.91 71.32 8.86"/>
    <path class="cls-1" d="M80.12,30.7c-4.81,1.56-9.89-.77-11.33-5.21s1.3-9.3,6.11-10.87,9.89.77,11.33,5.21S84.93,29.13,80.12,30.7Zm-10.28-8s3-9.11,13.87-5.32c0,0-5.15-3.11-8.91-1.31A9.33,9.33,0,0,0,69.83,22.66Z"/>
    <path class="cls-1" d="M67.69,29.78l-3.3.86,3.3-1.14-.11-5.84-7-6.43-4.6.31-.72-.34-6.61,1.27L48.3,19l-5.45,1.2-.84.9L38,22.25l-1.51,6.61,4.73,7.52-2.75,6.68,3.48,4.24-.1,22.64L55.72,70,54.41,52.79l-3.12-3.18,7.77-3.77,0-6,1.79-5.48-6.8-3.84-6.47,2.15-5-1.23.45-3.51,3.68-.5,5.49-1.61,10.95,6L66.69,38l-.38-7.12.66-.14.28,8.1-5.34,7.63,2.55,23.65h.32l-2-23.17,5-7.29Zm-20.1,21.1L48.7,53l0,15.18Zm.1-15.1,3.55-1.59,4.52,1.4-2.33.11-2.28,1.87,1-2.18L51.84,35l-4,1.57-3.7-2.82Zm-1.63,2.61,2.83.15-2.76,4.12.07,4L44,41.86ZM44.8,50.52l.37,15.92L44,52.17ZM43.45,34.19l-2.32.54L37,27.94l1.27-5.31,3.57-1.14-1.45,4.95Zm2.89-7-3.65.78-1-2,1.6-5.13,4.22-.87-2.24,5.15Zm4.9-1.23-3.46,1L47,25.15l2.4-6.26,4.33-.82-3,6.6Zm6.13,1.84-4.11-1.86-.52-1.46,3.59-6.7,4.08-.2,6.27,6.83-.47.15-6.07-5.63-3.36,5.21ZM60.51,29l.31-4.52.72-.21.55,1-.62.27L61.3,29l2.38,2.41Z"/>
  </g>
</svg>
